# Blender 4.2.10 LTS
# www.blender.org
mtllib arrow.mtl
o Cone
v -0.221710 -0.313545 -0.221710
v 0.221710 -0.313545 -0.221710
v 0.221710 -0.313545 0.221710
v -0.221710 -0.313545 0.221710
v 0.000000 0.313545 0.000000
vn -0.6465 -0.4052 -0.6465
vn 0.6465 -0.4052 -0.6465
vn 0.6465 -0.4052 0.6465
vn -0.6465 -0.4052 0.6465
vn -0.0000 1.0000 -0.0000
vt 0.250000 0.490000
vt 0.250000 0.250000
vt 0.490000 0.250000
vt 0.250000 0.010000
vt 0.750000 0.490000
vt 0.990000 0.250000
vt 0.750000 0.010000
vt 0.510000 0.250000
vt 0.010000 0.250000
s 1
f 1/1/1 5/2/5 2/3/2
f 2/3/2 5/2/5 3/4/3
f 1/5/1 2/6/2 3/7/3 4/8/4
f 3/4/3 5/2/5 4/9/4
f 4/9/4 5/2/5 1/1/1
