# Blender 4.2.10 LTS
# www.blender.org
mtllib circle.mtl
o Sphere
v 0.000000 0.121693 -0.293794
v 0.000000 -0.293794 -0.121693
v 0.046570 0.293794 -0.112430
v 0.086050 0.224860 -0.207743
v 0.112430 0.121693 -0.271430
v 0.121693 0.000000 -0.293794
v 0.112430 -0.121693 -0.271430
v 0.086050 -0.224860 -0.207743
v 0.046570 -0.293794 -0.112430
v 0.086050 0.293794 -0.086050
v 0.159000 0.224860 -0.159000
v 0.207743 0.121693 -0.207743
v 0.224860 0.000000 -0.224860
v 0.207743 -0.121693 -0.207743
v 0.159000 -0.224860 -0.159000
v 0.086050 -0.293794 -0.086050
v 0.112430 0.293794 -0.046570
v 0.207743 0.224860 -0.086050
v 0.271430 0.121693 -0.112430
v 0.293794 0.000000 -0.121693
v 0.271430 -0.121693 -0.112430
v 0.207743 -0.224860 -0.086050
v 0.112430 -0.293794 -0.046570
v 0.121693 0.293794 0.000000
v 0.224860 0.224860 0.000000
v 0.293794 0.121693 0.000000
v 0.318000 0.000000 0.000000
v 0.293794 -0.121693 0.000000
v 0.224860 -0.224860 0.000000
v 0.121693 -0.293794 0.000000
v 0.112430 0.293794 0.046570
v 0.207743 0.224860 0.086050
v 0.271430 0.121693 0.112430
v 0.293794 0.000000 0.121693
v 0.271430 -0.121693 0.112430
v 0.207743 -0.224860 0.086050
v 0.112430 -0.293794 0.046570
v 0.086050 0.293794 0.086050
v 0.159000 0.224860 0.159000
v 0.207743 0.121693 0.207743
v 0.224860 0.000000 0.224860
v 0.207743 -0.121693 0.207743
v 0.159000 -0.224860 0.159000
v 0.086050 -0.293794 0.086050
v 0.046570 0.293794 0.112430
v 0.086050 0.224860 0.207743
v 0.112430 0.121693 0.271430
v 0.121693 0.000000 0.293794
v 0.112430 -0.121693 0.271430
v 0.086050 -0.224860 0.207743
v 0.046570 -0.293794 0.112430
v -0.000000 0.293794 0.121693
v 0.000000 0.224860 0.224860
v -0.000000 0.121693 0.293794
v -0.000000 0.000000 0.318000
v -0.000000 -0.121693 0.293794
v 0.000000 -0.224860 0.224860
v -0.000000 -0.293794 0.121693
v -0.046570 0.293794 0.112430
v -0.086050 0.224860 0.207743
v -0.112430 0.121693 0.271430
v -0.121693 0.000000 0.293794
v -0.112430 -0.121693 0.271430
v -0.086050 -0.224860 0.207743
v -0.046570 -0.293794 0.112430
v -0.086050 0.293794 0.086050
v -0.159000 0.224860 0.159000
v -0.207743 0.121693 0.207743
v -0.224860 0.000000 0.224860
v -0.207743 -0.121693 0.207743
v -0.159000 -0.224860 0.159000
v -0.086050 -0.293794 0.086050
v -0.112430 0.293794 0.046570
v -0.207743 0.224860 0.086050
v -0.271430 0.121693 0.112430
v -0.293794 0.000000 0.121693
v -0.271430 -0.121693 0.112430
v -0.207743 -0.224860 0.086050
v -0.112430 -0.293794 0.046570
v 0.000000 0.318000 0.000000
v -0.121693 0.293794 -0.000000
v -0.224860 0.224860 0.000000
v -0.293794 0.121693 -0.000000
v -0.318000 0.000000 -0.000000
v -0.293794 -0.121693 -0.000000
v -0.224860 -0.224860 0.000000
v -0.121693 -0.293794 -0.000000
v -0.112430 0.293794 -0.046570
v -0.207743 0.224860 -0.086050
v -0.271430 0.121693 -0.112430
v -0.293794 0.000000 -0.121693
v -0.271430 -0.121693 -0.112430
v -0.207743 -0.224860 -0.086050
v -0.112430 -0.293794 -0.046570
v -0.086050 0.293794 -0.086050
v -0.159000 0.224860 -0.159000
v -0.207743 0.121693 -0.207743
v -0.224860 0.000000 -0.224860
v -0.207743 -0.121693 -0.207743
v -0.159000 -0.224860 -0.159000
v -0.086050 -0.293794 -0.086050
v -0.046570 0.293794 -0.112430
v -0.086050 0.224860 -0.207743
v -0.112430 0.121693 -0.271430
v -0.121693 0.000000 -0.293794
v -0.112430 -0.121693 -0.271430
v -0.086050 -0.224860 -0.207743
v -0.046570 -0.293794 -0.112430
v 0.000000 0.293794 -0.121693
v 0.000000 0.224860 -0.224860
v 0.000000 0.000000 -0.318000
v 0.000000 -0.121693 -0.293794
v 0.000000 -0.224860 -0.224860
v 0.000000 -0.318000 0.000000
vn -0.0000 0.3744 -0.9273
vn -0.0000 -0.9152 -0.4031
vn 0.1543 0.9152 -0.3724
vn 0.2751 0.6952 -0.6641
vn 0.3549 0.3744 -0.8567
vn 0.3827 -0.0000 -0.9239
vn 0.3549 -0.3744 -0.8567
vn 0.2751 -0.6952 -0.6641
vn 0.1543 -0.9152 -0.3724
vn 0.2850 0.9152 -0.2850
vn 0.5083 0.6952 -0.5083
vn 0.6557 0.3744 -0.6557
vn 0.7071 -0.0000 -0.7071
vn 0.6557 -0.3744 -0.6557
vn 0.5083 -0.6952 -0.5083
vn 0.2850 -0.9152 -0.2850
vn 0.3724 0.9152 -0.1543
vn 0.6641 0.6952 -0.2751
vn 0.8567 0.3744 -0.3549
vn 0.9239 -0.0000 -0.3827
vn 0.8567 -0.3744 -0.3549
vn 0.6641 -0.6952 -0.2751
vn 0.3724 -0.9152 -0.1543
vn 0.4031 0.9152 -0.0000
vn 0.7189 0.6952 -0.0000
vn 0.9273 0.3744 -0.0000
vn 1.0000 -0.0000 -0.0000
vn 0.9273 -0.3744 -0.0000
vn 0.7189 -0.6952 -0.0000
vn 0.4031 -0.9152 -0.0000
vn 0.3724 0.9152 0.1543
vn 0.6641 0.6952 0.2751
vn 0.8567 0.3744 0.3549
vn 0.9239 -0.0000 0.3827
vn 0.8567 -0.3744 0.3549
vn 0.6641 -0.6952 0.2751
vn 0.3724 -0.9152 0.1543
vn 0.2850 0.9152 0.2850
vn 0.5083 0.6952 0.5083
vn 0.6557 0.3744 0.6557
vn 0.7071 -0.0000 0.7071
vn 0.6557 -0.3744 0.6557
vn 0.5083 -0.6952 0.5083
vn 0.2850 -0.9152 0.2850
vn 0.1543 0.9152 0.3724
vn 0.2751 0.6952 0.6641
vn 0.3549 0.3744 0.8567
vn 0.3827 -0.0000 0.9239
vn 0.3549 -0.3744 0.8567
vn 0.2751 -0.6952 0.6641
vn 0.1543 -0.9152 0.3724
vn -0.0000 0.9152 0.4031
vn -0.0000 0.6952 0.7189
vn -0.0000 0.3744 0.9273
vn -0.0000 -0.0000 1.0000
vn -0.0000 -0.3744 0.9273
vn -0.0000 -0.6952 0.7189
vn -0.0000 -0.9152 0.4031
vn -0.1543 0.9152 0.3724
vn -0.2751 0.6952 0.6641
vn -0.3549 0.3744 0.8567
vn -0.3827 -0.0000 0.9239
vn -0.3549 -0.3744 0.8567
vn -0.2751 -0.6952 0.6641
vn -0.1543 -0.9152 0.3724
vn -0.2850 0.9152 0.2850
vn -0.5083 0.6952 0.5083
vn -0.6557 0.3744 0.6557
vn -0.7071 -0.0000 0.7071
vn -0.6557 -0.3744 0.6557
vn -0.5083 -0.6952 0.5083
vn -0.2850 -0.9152 0.2850
vn -0.3724 0.9152 0.1543
vn -0.6641 0.6952 0.2751
vn -0.8567 0.3744 0.3549
vn -0.9239 -0.0000 0.3827
vn -0.8567 -0.3744 0.3549
vn -0.6641 -0.6952 0.2751
vn -0.3724 -0.9152 0.1543
vn -0.0000 1.0000 -0.0000
vn -0.4031 0.9152 -0.0000
vn -0.7189 0.6952 -0.0000
vn -0.9273 0.3744 -0.0000
vn -1.0000 -0.0000 -0.0000
vn -0.9273 -0.3744 -0.0000
vn -0.7189 -0.6952 -0.0000
vn -0.4031 -0.9152 -0.0000
vn -0.3724 0.9152 -0.1543
vn -0.6641 0.6952 -0.2751
vn -0.8567 0.3744 -0.3549
vn -0.9239 -0.0000 -0.3827
vn -0.8567 -0.3744 -0.3549
vn -0.6641 -0.6952 -0.2751
vn -0.3724 -0.9152 -0.1543
vn -0.2850 0.9152 -0.2850
vn -0.5083 0.6952 -0.5083
vn -0.6557 0.3744 -0.6557
vn -0.7071 -0.0000 -0.7071
vn -0.6557 -0.3744 -0.6557
vn -0.5083 -0.6952 -0.5083
vn -0.2850 -0.9152 -0.2850
vn -0.1543 0.9152 -0.3724
vn -0.2751 0.6952 -0.6641
vn -0.3549 0.3744 -0.8567
vn -0.3827 -0.0000 -0.9239
vn -0.3549 -0.3744 -0.8567
vn -0.2751 -0.6952 -0.6641
vn -0.1543 -0.9152 -0.3724
vn -0.0000 0.9152 -0.4031
vn -0.0000 0.6952 -0.7189
vn -0.0000 -0.0000 -1.0000
vn -0.0000 -0.3744 -0.9273
vn -0.0000 -0.6952 -0.7189
vn -0.0000 -1.0000 -0.0000
vt 0.750000 0.625000
vt 0.750000 0.750000
vt 0.687500 0.750000
vt 0.687500 0.625000
vt 0.750000 0.875000
vt 0.718750 1.000000
vt 0.687500 0.875000
vt 0.718750 0.000000
vt 0.750000 0.125000
vt 0.687500 0.125000
vt 0.750000 0.250000
vt 0.750000 0.375000
vt 0.687500 0.375000
vt 0.687500 0.250000
vt 0.750000 0.500000
vt 0.687500 0.500000
vt 0.625000 0.375000
vt 0.625000 0.250000
vt 0.625000 0.625000
vt 0.625000 0.500000
vt 0.625000 0.875000
vt 0.625000 0.750000
vt 0.625000 0.125000
vt 0.656250 1.000000
vt 0.656250 0.000000
vt 0.562500 0.250000
vt 0.562500 0.125000
vt 0.562500 0.500000
vt 0.562500 0.375000
vt 0.562500 0.750000
vt 0.562500 0.625000
vt 0.593750 1.000000
vt 0.562500 0.875000
vt 0.593750 0.000000
vt 0.500000 0.500000
vt 0.500000 0.375000
vt 0.500000 0.750000
vt 0.500000 0.625000
vt 0.531250 1.000000
vt 0.500000 0.875000
vt 0.531250 0.000000
vt 0.500000 0.125000
vt 0.500000 0.250000
vt 0.468750 0.000000
vt 0.437500 0.125000
vt 0.437500 0.375000
vt 0.437500 0.250000
vt 0.437500 0.625000
vt 0.437500 0.500000
vt 0.437500 0.875000
vt 0.437500 0.750000
vt 0.468750 1.000000
vt 0.375000 0.625000
vt 0.375000 0.500000
vt 0.375000 0.875000
vt 0.375000 0.750000
vt 0.375000 0.250000
vt 0.375000 0.125000
vt 0.375000 0.375000
vt 0.406250 1.000000
vt 0.406250 0.000000
vt 0.312500 0.250000
vt 0.312500 0.125000
vt 0.312500 0.500000
vt 0.312500 0.375000
vt 0.312500 0.750000
vt 0.312500 0.625000
vt 0.343750 1.000000
vt 0.312500 0.875000
vt 0.343750 0.000000
vt 0.250000 0.750000
vt 0.250000 0.625000
vt 0.281250 1.000000
vt 0.250000 0.875000
vt 0.281250 0.000000
vt 0.250000 0.125000
vt 0.250000 0.375000
vt 0.250000 0.250000
vt 0.250000 0.500000
vt 0.218750 0.000000
vt 0.187500 0.125000
vt 0.187500 0.375000
vt 0.187500 0.250000
vt 0.187500 0.625000
vt 0.187500 0.500000
vt 0.187500 0.875000
vt 0.187500 0.750000
vt 0.218750 1.000000
vt 0.125000 0.875000
vt 0.125000 0.750000
vt 0.125000 0.250000
vt 0.125000 0.125000
vt 0.125000 0.500000
vt 0.125000 0.375000
vt 0.125000 0.625000
vt 0.156250 1.000000
vt 0.156250 0.000000
vt 0.062500 0.250000
vt 0.062500 0.125000
vt 0.062500 0.500000
vt 0.062500 0.375000
vt 0.062500 0.750000
vt 0.062500 0.625000
vt 0.093750 1.000000
vt 0.062500 0.875000
vt 0.093750 0.000000
vt 0.031250 1.000000
vt 0.000000 0.875000
vt 0.031250 0.000000
vt 0.000000 0.125000
vt 0.000000 0.375000
vt 0.000000 0.250000
vt 0.000000 0.625000
vt 0.000000 0.500000
vt 0.000000 0.750000
vt 1.000000 0.250000
vt 1.000000 0.375000
vt 0.937500 0.375000
vt 0.937500 0.250000
vt 1.000000 0.500000
vt 1.000000 0.625000
vt 0.937500 0.625000
vt 0.937500 0.500000
vt 1.000000 0.750000
vt 1.000000 0.875000
vt 0.937500 0.875000
vt 0.937500 0.750000
vt 1.000000 0.125000
vt 0.937500 0.125000
vt 0.968750 1.000000
vt 0.968750 0.000000
vt 0.875000 0.250000
vt 0.875000 0.125000
vt 0.875000 0.500000
vt 0.875000 0.375000
vt 0.875000 0.750000
vt 0.875000 0.625000
vt 0.906250 1.000000
vt 0.875000 0.875000
vt 0.906250 0.000000
vt 0.812500 0.500000
vt 0.812500 0.375000
vt 0.812500 0.750000
vt 0.812500 0.625000
vt 0.843750 1.000000
vt 0.812500 0.875000
vt 0.843750 0.000000
vt 0.812500 0.125000
vt 0.812500 0.250000
vt 0.781250 0.000000
vt 0.781250 1.000000
s 1
f 1/1/1 110/2/110 4/3/4 5/4/5
f 109/5/109 80/6/80 3/7/3
f 114/8/114 2/9/2 9/10/9
f 113/11/113 112/12/112 7/13/7 8/14/8
f 111/15/111 1/1/1 5/4/5 6/16/6
f 110/2/110 109/5/109 3/7/3 4/3/4
f 2/9/2 113/11/113 8/14/8 9/10/9
f 112/12/112 111/15/111 6/16/6 7/13/7
f 8/14/8 7/13/7 14/17/14 15/18/15
f 6/16/6 5/4/5 12/19/12 13/20/13
f 4/3/4 3/7/3 10/21/10 11/22/11
f 9/10/9 8/14/8 15/18/15 16/23/16
f 7/13/7 6/16/6 13/20/13 14/17/14
f 5/4/5 4/3/4 11/22/11 12/19/12
f 3/7/3 80/24/80 10/21/10
f 114/25/114 9/10/9 16/23/16
f 16/23/16 15/18/15 22/26/22 23/27/23
f 14/17/14 13/20/13 20/28/20 21/29/21
f 12/19/12 11/22/11 18/30/18 19/31/19
f 10/21/10 80/32/80 17/33/17
f 114/34/114 16/23/16 23/27/23
f 15/18/15 14/17/14 21/29/21 22/26/22
f 13/20/13 12/19/12 19/31/19 20/28/20
f 11/22/11 10/21/10 17/33/17 18/30/18
f 21/29/21 20/28/20 27/35/27 28/36/28
f 19/31/19 18/30/18 25/37/25 26/38/26
f 17/33/17 80/39/80 24/40/24
f 114/41/114 23/27/23 30/42/30
f 22/26/22 21/29/21 28/36/28 29/43/29
f 20/28/20 19/31/19 26/38/26 27/35/27
f 18/30/18 17/33/17 24/40/24 25/37/25
f 23/27/23 22/26/22 29/43/29 30/42/30
f 114/44/114 30/42/30 37/45/37
f 29/43/29 28/36/28 35/46/35 36/47/36
f 27/35/27 26/38/26 33/48/33 34/49/34
f 25/37/25 24/40/24 31/50/31 32/51/32
f 30/42/30 29/43/29 36/47/36 37/45/37
f 28/36/28 27/35/27 34/49/34 35/46/35
f 26/38/26 25/37/25 32/51/32 33/48/33
f 24/40/24 80/52/80 31/50/31
f 34/49/34 33/48/33 40/53/40 41/54/41
f 32/51/32 31/50/31 38/55/38 39/56/39
f 37/45/37 36/47/36 43/57/43 44/58/44
f 35/46/35 34/49/34 41/54/41 42/59/42
f 33/48/33 32/51/32 39/56/39 40/53/40
f 31/50/31 80/60/80 38/55/38
f 114/61/114 37/45/37 44/58/44
f 36/47/36 35/46/35 42/59/42 43/57/43
f 44/58/44 43/57/43 50/62/50 51/63/51
f 42/59/42 41/54/41 48/64/48 49/65/49
f 40/53/40 39/56/39 46/66/46 47/67/47
f 38/55/38 80/68/80 45/69/45
f 114/70/114 44/58/44 51/63/51
f 43/57/43 42/59/42 49/65/49 50/62/50
f 41/54/41 40/53/40 47/67/47 48/64/48
f 39/56/39 38/55/38 45/69/45 46/66/46
f 47/67/47 46/66/46 53/71/53 54/72/54
f 45/69/45 80/73/80 52/74/52
f 114/75/114 51/63/51 58/76/58
f 50/62/50 49/65/49 56/77/56 57/78/57
f 48/64/48 47/67/47 54/72/54 55/79/55
f 46/66/46 45/69/45 52/74/52 53/71/53
f 51/63/51 50/62/50 57/78/57 58/76/58
f 49/65/49 48/64/48 55/79/55 56/77/56
f 114/80/114 58/76/58 65/81/65
f 57/78/57 56/77/56 63/82/63 64/83/64
f 55/79/55 54/72/54 61/84/61 62/85/62
f 53/71/53 52/74/52 59/86/59 60/87/60
f 58/76/58 57/78/57 64/83/64 65/81/65
f 56/77/56 55/79/55 62/85/62 63/82/63
f 54/72/54 53/71/53 60/87/60 61/84/61
f 52/74/52 80/88/80 59/86/59
f 60/87/60 59/86/59 66/89/66 67/90/67
f 65/81/65 64/83/64 71/91/71 72/92/72
f 63/82/63 62/85/62 69/93/69 70/94/70
f 61/84/61 60/87/60 67/90/67 68/95/68
f 59/86/59 80/96/80 66/89/66
f 114/97/114 65/81/65 72/92/72
f 64/83/64 63/82/63 70/94/70 71/91/71
f 62/85/62 61/84/61 68/95/68 69/93/69
f 72/92/72 71/91/71 78/98/78 79/99/79
f 70/94/70 69/93/69 76/100/76 77/101/77
f 68/95/68 67/90/67 74/102/74 75/103/75
f 66/89/66 80/104/80 73/105/73
f 114/106/114 72/92/72 79/99/79
f 71/91/71 70/94/70 77/101/77 78/98/78
f 69/93/69 68/95/68 75/103/75 76/100/76
f 67/90/67 66/89/66 73/105/73 74/102/74
f 73/105/73 80/107/80 81/108/81
f 114/109/114 79/99/79 87/110/87
f 78/98/78 77/101/77 85/111/85 86/112/86
f 76/100/76 75/103/75 83/113/83 84/114/84
f 74/102/74 73/105/73 81/108/81 82/115/82
f 79/99/79 78/98/78 86/112/86 87/110/87
f 77/101/77 76/100/76 84/114/84 85/111/85
f 75/103/75 74/102/74 82/115/82 83/113/83
f 86/116/86 85/117/85 92/118/92 93/119/93
f 84/120/84 83/121/83 90/122/90 91/123/91
f 82/124/82 81/125/81 88/126/88 89/127/89
f 87/128/87 86/116/86 93/119/93 94/129/94
f 85/117/85 84/120/84 91/123/91 92/118/92
f 83/121/83 82/124/82 89/127/89 90/122/90
f 81/125/81 80/130/80 88/126/88
f 114/131/114 87/128/87 94/129/94
f 94/129/94 93/119/93 100/132/100 101/133/101
f 92/118/92 91/123/91 98/134/98 99/135/99
f 90/122/90 89/127/89 96/136/96 97/137/97
f 88/126/88 80/138/80 95/139/95
f 114/140/114 94/129/94 101/133/101
f 93/119/93 92/118/92 99/135/99 100/132/100
f 91/123/91 90/122/90 97/137/97 98/134/98
f 89/127/89 88/126/88 95/139/95 96/136/96
f 99/135/99 98/134/98 105/141/105 106/142/106
f 97/137/97 96/136/96 103/143/103 104/144/104
f 95/139/95 80/145/80 102/146/102
f 114/147/114 101/133/101 108/148/108
f 100/132/100 99/135/99 106/142/106 107/149/107
f 98/134/98 97/137/97 104/144/104 105/141/105
f 96/136/96 95/139/95 102/146/102 103/143/103
f 101/133/101 100/132/100 107/149/107 108/148/108
f 114/150/114 108/148/108 2/9/2
f 107/149/107 106/142/106 112/12/112 113/11/113
f 105/141/105 104/144/104 1/1/1 111/15/111
f 103/143/103 102/146/102 109/5/109 110/2/110
f 108/148/108 107/149/107 113/11/113 2/9/2
f 106/142/106 105/141/105 111/15/111 112/12/112
f 104/144/104 103/143/103 110/2/110 1/1/1
f 102/146/102 80/151/80 109/5/109
